<?xml version="1.0" standalone="no"?>
<!DOCTYPE svg PUBLIC "-//W3C//DTD SVG 20010904//EN"
 "http://www.w3.org/TR/2001/REC-SVG-20010904/DTD/svg10.dtd">
<svg version="1.0" xmlns="http://www.w3.org/2000/svg"
 width="359.000000pt" height="502.000000pt" viewBox="0 0 359.000000 502.000000"
 preserveAspectRatio="xMidYMid meet">

<g transform="translate(0.000000,502.000000) scale(0.100000,-0.100000)"
fill="#000000" stroke="none">
<path d="M1845 4231 c-108 -28 -207 -107 -258 -206 -29 -56 -31 -67 -32 -165
0 -93 3 -111 26 -160 40 -85 99 -144 185 -186 69 -35 81 -37 163 -37 77 0 96
3 154 30 88 42 150 101 190 182 30 61 32 73 32 166 0 88 -3 107 -27 157 -62
133 -185 217 -327 224 -42 2 -89 0 -106 -5z"/>
<path d="M1625 3371 c-82 -20 -96 -40 -225 -316 -57 -121 -134 -285 -172 -364
-37 -79 -68 -145 -68 -146 0 -1 -29 -64 -65 -140 -37 -76 -68 -149 -71 -164
-8 -45 25 -92 86 -123 30 -15 72 -27 93 -28 77 0 86 11 214 263 l118 232 3
-213 2 -213 -81 -252 c-44 -139 -96 -299 -114 -357 -18 -58 -70 -219 -114
-358 -45 -139 -81 -267 -81 -285 1 -161 226 -248 348 -134 38 35 49 63 149
376 52 163 130 408 174 544 43 136 79 251 79 255 2 25 147 -347 170 -433 12
-45 36 -221 56 -405 40 -374 47 -397 124 -438 92 -48 228 -3 278 93 37 71 38
52 -43 672 -36 268 -59 348 -179 622 -44 99 -46 108 -45 195 l0 91 112 -116
c62 -64 122 -122 134 -128 50 -26 97 -10 154 53 40 43 53 88 40 129 -7 20 -90
120 -206 247 -152 168 -198 225 -209 260 -10 31 -17 117 -22 272 -10 332 6
318 -361 317 -136 -1 -261 -4 -278 -8z"/>
</g>
</svg>
