<?xml version="1.0" standalone="no"?>
<!DOCTYPE svg PUBLIC "-//W3C//DTD SVG 20010904//EN"
 "http://www.w3.org/TR/2001/REC-SVG-20010904/DTD/svg10.dtd">
<svg version="1.0" xmlns="http://www.w3.org/2000/svg"
 width="696.000000pt" height="655.000000pt" viewBox="0 0 696.000000 655.000000"
 preserveAspectRatio="xMidYMid meet">

<g transform="translate(0.000000,655.000000) scale(0.100000,-0.100000)"
fill="#000000" stroke="none">
<path d="M0 3275 l0 -3275 3480 0 3480 0 0 178 c0 156 -3 187 -24 257 -21 72
-26 80 -46 77 -22 -4 -22 -2 -15 45 4 26 9 51 12 56 9 14 28 7 50 -20 l22 -28
1 2281 c0 1678 -3 2296 -11 2338 -9 43 -9 60 0 69 6 6 11 17 11 24 0 14 -155
16 -434 4 l-149 -6 164 -157 c148 -141 170 -166 220 -255 l57 -98 -36 -6 c-42
-8 -62 -31 -62 -75 0 -17 -6 -37 -14 -43 -8 -7 -17 -27 -20 -45 -6 -29 -10
-33 -32 -28 -19 3 -40 30 -93 121 -68 114 -73 120 -311 345 l-242 229 -112 -2
c-123 -2 -2464 -59 -2591 -63 l-80 -3 -101 -134 -102 -134 -80 -236 c-51 -148
-87 -271 -96 -331 -9 -52 -29 -160 -45 -238 l-29 -144 62 -190 61 -191 336
-148 336 -147 529 122 529 123 465 26 c361 21 536 36 782 67 300 38 323 42
420 80 56 22 105 39 109 38 4 -2 1 -22 -8 -46 -10 -31 -11 -47 -4 -56 8 -10 6
-18 -9 -31 -22 -20 -26 -55 -10 -86 10 -18 7 -19 -37 -16 -43 2 -48 0 -51 -20
-3 -17 3 -24 22 -29 14 -3 26 -10 26 -14 0 -16 -91 -39 -215 -55 -71 -9 -131
-18 -133 -19 -1 -2 53 -34 122 -71 111 -59 235 -149 181 -129 -55 19 -65 17
-65 -10 0 -19 9 -30 33 -43 l32 -18 -40 -5 c-34 -4 -40 -9 -43 -30 -2 -19 5
-30 30 -45 l33 -20 -39 -3 c-22 -2 -45 -11 -52 -20 -11 -15 -17 -13 -65 19
-30 20 -175 100 -323 179 l-270 144 -415 -22 -416 -23 -531 -121 -532 -121
-212 -206 -213 -206 67 -268 c36 -148 66 -275 66 -282 0 -8 -35 -21 -90 -35
-83 -21 -90 -24 -90 -47 0 -21 4 -24 33 -23 52 3 53 2 18 -34 -28 -29 -31 -37
-22 -54 6 -11 11 -35 11 -52 0 -20 8 -39 23 -52 20 -18 22 -26 14 -47 -12 -32
8 -111 28 -111 11 0 11 -6 2 -30 -10 -25 -8 -34 9 -57 12 -16 34 -30 50 -33
l29 -5 -33 -23 c-27 -20 -30 -27 -22 -43 8 -13 21 -19 45 -19 19 0 35 -4 35
-10 0 -5 -10 -10 -23 -10 -13 0 -28 -5 -34 -11 -11 -11 -6 -49 6 -49 3 0 7
-19 7 -43 1 -24 6 -53 12 -64 11 -20 13 -20 64 -6 88 25 110 63 68 115 -21 28
-18 38 15 38 18 0 24 -12 44 -97 13 -54 26 -104 29 -111 3 -10 -2 -10 -24 -1
-32 12 -101 4 -125 -14 -44 -33 -48 -106 -9 -142 17 -16 18 -20 5 -38 -8 -12
-15 -29 -15 -38 0 -27 39 -67 68 -71 27 -4 27 -4 -11 -23 -20 -10 -37 -24 -37
-30 0 -18 22 -35 46 -35 13 0 26 -4 29 -10 3 -5 0 -10 -8 -10 -29 0 -50 -37
-43 -77 3 -21 7 -51 8 -68 3 -29 4 -30 55 -30 69 0 72 -18 5 -28 -47 -8 -53
-11 -50 -30 3 -19 9 -22 53 -22 28 0 52 -4 54 -10 3 -5 -2 -11 -10 -12 -76
-10 -89 -15 -89 -34 0 -11 7 -22 15 -25 11 -5 13 -10 5 -19 -7 -8 -8 -33 -4
-64 5 -42 10 -51 27 -51 19 0 19 -1 2 -20 -11 -12 -16 -29 -13 -45 5 -23 2
-25 -28 -25 -19 0 -34 3 -34 6 0 3 -27 200 -60 439 l-60 433 -155 634 c-85
348 -157 639 -160 647 -3 8 -24 -11 -55 -52 l-50 -66 -159 -536 -159 -536 94
-482 c52 -265 94 -483 94 -485 0 -1 -59 -1 -132 0 l-132 3 -86 440 c-47 242
-94 469 -103 505 -9 36 -82 278 -162 538 -80 260 -145 479 -145 488 0 12 20
14 132 12 l132 -3 62 -200 c34 -110 72 -233 84 -274 12 -40 25 -70 29 -65 4 5
54 168 111 361 l103 353 128 171 127 171 -13 41 c-8 23 -55 173 -105 332 -141
451 -412 1252 -522 1545 -139 368 -219 574 -226 582 -4 3 -153 28 -332 54
l-325 48 -143 89 c-79 49 -145 88 -147 85 -2 -2 78 -204 177 -448 124 -305
268 -690 459 -1226 236 -665 438 -1268 427 -1279 -2 -2 -21 1 -44 7 -35 10
-51 7 -123 -17 -45 -15 -85 -24 -89 -21 -3 4 -38 111 -78 239 -39 128 -193
575 -342 993 -219 616 -318 879 -520 1375 -267 655 -292 715 -454 1079 -57
129 -117 265 -133 303 l-28 67 -174 0 -173 0 0 -3275z m6846 1454 c44 -11 54
-22 33 -34 -6 -4 -8 -12 -6 -19 2 -6 1 -21 -4 -34 -7 -19 -15 -23 -41 -20 -32
3 -33 5 -34 47 0 25 -6 47 -12 49 -15 5 -32 -31 -22 -48 12 -20 1 -33 -16 -19
-17 14 -18 28 -4 63 11 30 34 33 106 15z m-112 -123 c4 -18 18 -29 57 -41 36
-12 48 -20 40 -28 -7 -7 -28 -5 -71 8 -54 16 -61 21 -56 39 3 12 6 27 6 34 0
21 18 13 24 -12z m128 7 c39 22 48 12 48 -56 0 -42 -5 -54 -34 -83 -33 -33
-66 -45 -66 -24 0 6 4 10 10 10 11 0 33 77 27 94 -3 7 -26 19 -51 26 -25 7
-46 18 -46 25 0 21 22 23 52 6 26 -15 30 -15 60 2z m-205 -79 c-9 -9 -28 6
-21 18 4 6 10 6 17 -1 6 -6 8 -13 4 -17z m111 -18 c58 -20 71 -42 19 -33 -52
8 -109 35 -102 47 4 6 12 9 19 7 6 -2 35 -12 64 -21z m-31 -68 c-3 -18 -8 -41
-12 -50 -5 -12 -2 -18 7 -18 21 0 38 21 38 47 0 13 4 23 9 23 17 0 21 -32 8
-58 -17 -36 -85 -44 -116 -13 -42 42 -17 101 41 101 29 0 30 -2 25 -32z m-140
-94 c-9 -9 -28 6 -21 18 4 6 10 6 17 -1 6 -6 8 -13 4 -17z m111 -18 c28 -10
52 -22 52 -27 0 -16 -26 -11 -128 26 -7 3 -10 10 -7 16 4 6 12 8 19 6 6 -2 35
-12 64 -21z m-63 -62 c98 -78 95 -88 -28 -92 -77 -2 -98 0 -95 10 3 8 31 15
79 18 l74 5 -57 45 c-51 40 -73 70 -50 70 4 0 39 -25 77 -56z m-85 -208 c0
-20 8 -27 51 -41 34 -12 47 -21 41 -27 -7 -7 -28 -4 -64 7 -66 22 -68 24 -61
58 7 34 33 36 33 3z m40 -101 c21 -7 34 -18 31 -26 -6 -24 -9 -44 -10 -56 -2
-21 -39 -35 -62 -23 -16 9 -20 20 -18 50 2 22 0 43 -5 47 -13 13 -34 -25 -28
-52 5 -30 -3 -32 -18 -4 -9 16 -9 28 0 50 10 24 18 29 44 28 17 0 47 -6 66
-14z m-56 -131 c26 -9 45 -21 44 -26 -4 -12 -14 -12 -66 3 -82 23 -85 -32 -4
-61 23 -8 42 -20 42 -27 0 -16 3 -16 -54 3 -42 14 -50 15 -62 2 -23 -23 -7
-45 42 -58 24 -7 47 -17 50 -21 11 -19 -23 -19 -76 -1 -51 18 -55 21 -52 48 2
16 10 39 18 51 8 12 14 33 14 47 0 26 23 56 44 56 7 0 34 -7 60 -16z m-4 -64
c13 -9 13 -10 0 -9 -8 0 -24 4 -35 9 l-20 9 20 0 c11 0 27 -4 35 -9z m70 -115
c0 -40 -19 -78 -50 -102 -13 -10 -16 -7 -22 19 -3 17 -1 39 5 48 16 27 2 47
-44 62 -42 14 -65 38 -36 38 8 0 34 -7 58 -15 43 -15 58 -10 59 20 0 6 7 1 15
-9 8 -11 15 -38 15 -61z m-148 -31 c3 -3 2 -21 -3 -41 -10 -45 -4 -56 23 -42
15 8 19 18 16 40 -3 18 -1 28 6 26 19 -6 19 -57 0 -78 -21 -23 -71 -25 -102
-3 -25 17 -31 71 -10 92 12 12 60 17 70 6z m-82 -125 c102 -23 121 -30 113
-42 -4 -7 -6 -20 -4 -30 8 -52 -83 -78 -128 -36 -18 17 -22 28 -17 54 6 29 4
33 -19 39 -28 7 -34 26 -7 26 9 0 37 -5 62 -11z m3 -146 c46 -11 77 -23 77
-30 0 -16 -9 -16 -79 1 -31 8 -68 17 -83 20 -31 7 -38 26 -10 26 9 0 52 -8 95
-17z m32 -72 c28 -6 30 -9 27 -46 -2 -22 -9 -46 -14 -52 -27 -33 -84 2 -73 44
7 30 -1 44 -21 36 -12 -4 -14 -14 -9 -40 5 -27 3 -34 -7 -31 -17 6 -23 65 -7
84 12 14 52 17 104 5z m-81 -139 c39 -20 71 -42 73 -48 5 -14 -29 -24 -84 -24
-24 0 -43 -3 -43 -7 1 -5 24 -21 53 -38 29 -16 51 -34 50 -40 -2 -6 -46 -11
-99 -13 -75 -2 -95 0 -92 10 3 8 29 15 69 18 l64 5 -54 30 c-72 40 -76 55 -14
56 26 0 57 4 68 9 17 7 13 11 -32 31 -53 24 -76 49 -45 49 9 0 48 -17 86 -38z
m37 8 l24 -21 -35 17 c-43 21 -47 24 -28 24 9 0 26 -9 39 -20z m264 -314 c238
-325 235 -320 235 -375 0 -37 -6 -49 -39 -82 -32 -33 -45 -39 -80 -39 -23 0
-55 7 -70 14 -16 9 -86 94 -166 203 -130 177 -138 190 -136 230 2 48 -20 78
-66 89 -16 4 -45 22 -66 40 l-37 34 72 0 c98 0 118 7 118 36 0 18 -9 29 -35
41 -47 23 -44 33 10 33 39 0 45 3 51 25 4 14 7 25 9 23 1 -2 91 -124 200 -272z
m-291 9 c68 -69 -33 -152 -106 -87 -23 19 -23 60 -1 84 20 22 85 24 107 3z
m-111 -129 c7 -17 77 -27 95 -13 16 13 26 3 18 -18 -5 -13 -17 -16 -59 -14
-28 2 -57 0 -64 -4 -12 -7 -53 20 -53 35 0 5 9 8 20 8 11 0 20 5 20 10 0 15
17 12 23 -4z m573 -64 c-9 -8 -26 10 -26 26 1 15 2 15 15 -2 8 -11 13 -21 11
-24z m-635 -15 c-1 -12 -15 -9 -19 4 -3 6 1 10 8 8 6 -3 11 -8 11 -12z m160
-13 c20 -12 -5 -24 -39 -19 -79 13 -92 17 -92 27 0 11 112 4 131 -8z m-64 -79
c-5 -34 -3 -45 7 -45 24 0 37 26 30 57 -7 25 -6 27 9 14 40 -33 7 -101 -49
-101 -36 0 -84 36 -84 62 0 29 31 58 62 58 31 0 31 0 25 -45z m-127 -91 c0
-16 26 -19 35 -3 5 7 11 5 18 -5 7 -8 34 -19 61 -23 27 -5 51 -13 53 -19 5
-15 -124 -10 -159 6 -28 13 -44 42 -33 60 8 13 25 3 25 -16z m-4120 -89 c0
-13 -3 -13 -20 -3 -17 11 -22 10 -30 -2 -12 -19 -12 -21 -1 -39 8 -12 12 -13
25 -1 19 15 31 8 23 -15 -7 -18 -48 -20 -65 -3 -13 13 -16 57 -4 74 18 28 72
19 72 -11z m-92 6 c4 -11 -2 -12 -24 -7 l-29 7 29 -24 c34 -27 30 -57 -6 -57
-31 0 -52 15 -43 29 5 9 10 9 21 0 8 -6 18 -8 22 -4 4 4 2 10 -4 12 -55 20
-57 67 -2 61 17 -2 34 -9 36 -17z m232 -13 c0 -34 15 -29 22 7 4 24 47 33 59
13 13 -19 11 -62 -3 -76 -17 -17 -48 -15 -55 3 -5 14 -8 14 -26 -2 -14 -13
-21 -15 -24 -5 -3 6 -13 12 -24 12 -24 0 -24 7 1 48 26 42 50 42 50 0z m150
-18 c0 -27 -4 -50 -10 -50 -5 0 -10 16 -10 35 0 24 -5 35 -15 35 -18 0 -20 16
-2 23 31 13 37 6 37 -43z m3927 -15 c-5 -34 -3 -45 7 -45 24 0 37 26 30 57 -7
25 -6 27 9 14 40 -33 7 -101 -49 -101 -36 0 -84 36 -84 62 0 29 31 58 62 58
31 0 31 0 25 -45z m-4162 16 c8 -14 -13 -24 -33 -16 -14 5 -14 7 -2 15 19 12
27 12 35 1z m4100 -123 c8 -18 21 -24 54 -28 25 -3 46 -11 49 -19 4 -11 -8
-12 -59 -6 -35 4 -67 9 -70 11 -3 2 -6 17 -7 34 -1 35 19 40 33 8z m24 -102
c7 -8 15 -30 18 -50 5 -34 8 -36 44 -36 22 0 39 -4 39 -9 0 -11 -67 -23 -142
-25 l-53 -1 -3 51 c-2 37 2 56 13 68 20 20 68 21 84 2z m-2853 -111 c9 -61 -6
-79 -61 -72 -32 5 -45 1 -62 -15 -33 -31 -41 -13 -10 20 38 40 36 64 -5 60
-58 -5 -41 16 24 33 101 27 106 26 114 -26z m47 -167 c24 -97 24 -130 -2 -114
-6 4 -11 13 -11 21 0 8 -10 21 -21 29 -18 12 -20 19 -12 43 11 29 3 66 -17 78
-8 5 -6 13 6 26 9 10 20 19 24 19 4 0 19 -46 33 -102z m2922 26 c7 -52 -5 -74
-41 -74 -24 0 -31 10 -49 64 -5 17 -7 18 -21 5 -15 -15 -10 -49 7 -49 5 0 9
-4 9 -10 0 -20 -31 -9 -42 15 -20 44 2 72 64 83 29 5 56 10 59 11 4 0 10 -20
14 -45z m-2993 19 c53 -48 -37 -136 -94 -90 -27 21 -30 52 -7 80 24 32 72 36
101 10z m42 -150 c9 -28 13 -31 38 -26 46 9 33 -15 -14 -27 -24 -6 -59 -15
-78 -21 -52 -13 -56 -12 -68 27 -10 33 -8 38 14 61 19 19 33 23 62 21 32 -3
38 -7 46 -35z m2963 14 c-2 -7 0 -20 5 -30 13 -25 2 -52 -28 -65 -56 -26 -114
-4 -114 45 0 19 -5 23 -31 23 -20 0 -29 4 -27 13 3 7 39 16 94 22 94 11 108
10 101 -8z m-2865 -189 c17 -74 23 -116 16 -123 -6 -7 -14 -4 -22 8 -7 9 -20
17 -29 17 -25 0 -28 15 -6 33 17 15 18 21 7 40 -6 12 -11 34 -9 49 2 18 -6 36
-22 52 -26 26 -21 34 19 35 18 1 23 -12 46 -111z m-78 66 c9 -8 16 -29 16 -45
0 -24 -7 -33 -36 -46 -32 -16 -38 -16 -62 -2 -37 20 -42 71 -10 93 29 20 72
21 92 0z m2959 -15 c-14 -14 -126 -29 -137 -18 -14 13 33 26 104 28 31 1 41
-2 33 -10z m-163 -20 c0 -5 -7 -9 -15 -9 -15 0 -20 12 -9 23 8 8 24 -1 24 -14z
m170 -38 c0 -5 -24 -13 -52 -18 -48 -7 -53 -11 -53 -33 0 -24 2 -25 58 -23 41
1 57 -2 57 -11 0 -8 -19 -16 -52 -20 -78 -9 -87 -8 -87 12 -1 9 -2 30 -3 47
-2 22 3 32 22 42 29 15 110 18 110 4z m-2956 -58 c-16 -12 -33 -23 -37 -23 -5
0 -5 -4 -2 -10 3 -5 21 -10 40 -10 19 0 37 -4 40 -10 7 -11 -75 -14 -113 -4
-31 9 -26 18 33 58 55 37 86 37 39 -1z m2914 -112 c3 -33 7 -42 20 -39 20 4
28 44 12 63 -7 9 -8 15 -1 19 6 4 17 -5 26 -18 18 -27 14 -56 -11 -81 -22 -22
-87 -19 -108 4 -25 27 -17 72 14 88 36 18 45 12 48 -36z m-2818 24 c0 -8 -4
-15 -10 -15 -5 0 -10 7 -10 15 0 8 5 15 10 15 6 0 10 -7 10 -15z m-45 -14 c-5
-9 -84 -31 -109 -31 -36 0 -12 19 42 32 56 15 77 14 67 -1z m13 -53 c16 -16
15 -63 0 -75 -14 -11 -100 -34 -106 -28 -2 2 -4 25 -5 52 -2 46 -1 48 26 51
24 3 30 -2 40 -27 12 -33 37 -42 37 -14 0 9 -7 25 -17 35 -13 15 -14 18 -2 18
8 0 20 -5 27 -12z m2875 -68 c32 -8 56 -18 54 -24 -5 -15 -97 -65 -119 -66
-32 0 -19 18 26 36 24 10 43 22 40 25 -2 4 -21 10 -41 14 -21 4 -41 9 -46 12
-11 7 3 25 17 20 6 -2 37 -10 69 -17z m67 -100 c0 -6 -11 -16 -25 -22 -16 -7
-24 -17 -20 -26 3 -7 5 -24 5 -38 0 -17 7 -25 25 -30 14 -3 25 -12 25 -19 0
-13 -32 -8 -155 24 -51 13 -41 33 42 78 80 43 103 51 103 33z m-2856 -26 c22
-22 30 -59 16 -83 -11 -21 -40 -29 -40 -11 0 6 4 10 9 10 20 0 23 41 4 62 -14
16 -26 19 -56 15 -21 -3 -44 -11 -52 -17 -19 -16 -19 -54 0 -70 18 -15 35 -5
35 21 0 10 5 19 10 19 6 0 10 -16 10 -35 0 -33 -2 -35 -35 -35 -39 0 -55 20
-55 69 0 41 40 71 96 71 25 0 49 -6 58 -16z m-17 -40 c3 -8 -1 -22 -10 -31
-13 -14 -16 -13 -22 6 -8 28 -43 27 -54 -1 -6 -18 -9 -19 -14 -5 -3 9 1 23 9
32 21 20 83 20 91 -1z m53 -68 c0 -2 25 -181 55 -399 30 -217 55 -398 55 -401
0 -3 -6 -6 -14 -6 -7 0 -19 13 -26 30 -7 16 -20 32 -31 35 -17 6 -17 7 2 26
26 26 24 65 -5 94 -21 21 -22 25 -9 38 13 13 14 28 4 98 -6 46 -15 87 -20 92
-5 5 -7 26 -4 47 3 21 1 40 -6 44 -6 4 -8 20 -4 36 5 27 2 31 -27 42 l-33 11
28 14 c21 12 25 19 20 36 -4 12 -7 33 -7 47 2 38 -17 76 -41 88 -21 10 -21 11
5 11 15 1 30 6 33 11 6 9 25 14 25 6z m-58 -53 c25 -23 23 -68 -4 -87 -48 -34
-108 -8 -108 45 0 51 72 78 112 42z m2873 -100 c10 -96 12 -102 37 -95 19 5
21 2 15 -24 -16 -82 -40 -104 -66 -61 -8 12 -21 32 -29 45 -14 21 -13 23 7 29
21 5 22 9 15 84 -8 93 11 113 21 22z m-2845 -15 c0 -7 -19 -22 -43 -32 l-42
-19 48 -10 c26 -6 47 -16 47 -23 0 -12 -13 -10 -107 11 -35 8 -28 21 30 53 60
35 67 36 67 20z m17 -144 c14 -22 14 -26 -1 -49 -30 -45 -66 -28 -66 32 0 27
-17 27 -34 0 -8 -12 -7 -23 2 -38 11 -16 11 -20 1 -17 -27 9 -35 37 -19 65 26
46 89 50 117 7z m20 -124 c2 -34 -7 -39 -24 -11 -10 15 -20 18 -57 14 -29 -4
-46 -2 -46 5 0 12 27 19 85 21 38 1 40 -1 42 -29z m11 -67 c0 -10 2 -25 6 -33
12 -29 -18 -52 -72 -58 -68 -6 -69 14 -2 23 44 6 50 10 50 31 0 22 -4 24 -55
24 -57 0 -76 16 -27 23 70 11 101 7 100 -10z m22 -167 c0 -37 -7 -42 -77 -55
l-42 -8 -7 44 c-7 50 2 66 37 61 17 -2 27 -12 34 -36 5 -18 14 -31 20 -29 14
5 19 47 6 47 -6 0 -11 7 -11 15 0 13 4 14 20 5 14 -7 20 -21 20 -44z m-2 -92
c12 -8 22 -26 22 -39 0 -19 6 -24 33 -28 26 -3 23 -4 -13 -5 -44 -2 -46 -1
-45 26 0 25 -3 27 -40 27 -37 0 -40 -2 -40 -27 1 -31 -20 -38 -28 -9 -13 52
62 90 111 55z m-18 -38 c0 -19 -39 -31 -53 -17 -9 9 -8 14 3 21 22 14 50 12
50 -4z"/>
<path d="M6816 4703 c-3 -4 -6 -16 -6 -28 0 -12 3 -24 6 -28 12 -12 34 6 34
28 0 22 -22 40 -34 28z"/>
<path d="M6680 4445 c-14 -17 -5 -48 13 -43 14 5 23 58 9 58 -5 0 -15 -7 -22
-15z"/>
<path d="M6562 3913 c4 -36 33 -39 33 -3 0 16 -6 26 -18 28 -15 3 -18 -2 -15
-25z"/>
<path d="M6411 3601 c-15 -10 -12 -42 5 -48 13 -4 27 38 16 49 -4 4 -13 3 -21
-1z"/>
<path d="M6377 3464 c-17 -18 -6 -55 19 -65 47 -17 87 11 61 44 -13 17 -69 31
-80 21z"/>
<path d="M6378 3243 c-7 -25 1 -43 18 -43 20 0 29 27 14 45 -16 20 -27 19 -32
-2z"/>
<path d="M6256 2827 c-40 -29 11 -79 63 -62 31 10 28 53 -5 65 -33 13 -37 13
-58 -3z m54 -26 c14 -27 -9 -40 -27 -16 -17 24 -17 35 2 35 8 0 19 -9 25 -19z"/>
<path d="M6210 2535 c0 -15 6 -25 14 -25 7 0 16 11 18 25 4 19 1 25 -13 25
-14 0 -19 -7 -19 -25z"/>
<path d="M2200 2346 c0 -14 5 -28 10 -31 6 -4 10 7 10 24 0 17 -4 31 -10 31
-5 0 -10 -11 -10 -24z"/>
<path d="M6182 2313 c4 -37 25 -40 30 -3 4 24 1 30 -14 30 -15 0 -19 -6 -16
-27z"/>
<path d="M6124 2076 c-9 -39 2 -56 35 -56 37 0 42 8 32 46 -5 21 -14 30 -34
32 -21 3 -28 -2 -33 -22z"/>
<path d="M3264 2006 c-7 -19 13 -56 30 -56 21 0 38 27 31 50 -7 23 -53 28 -61
6z m46 -16 c0 -11 -7 -20 -15 -20 -15 0 -21 21 -8 33 12 13 23 7 23 -13z"/>
<path d="M6250 1851 c0 -28 24 -45 39 -27 15 18 3 46 -20 46 -12 0 -19 -7 -19
-19z"/>
<path d="M3240 1860 c-34 -34 -1 -67 48 -49 28 11 38 35 22 54 -17 21 -46 19
-70 -5z m58 -17 c-4 -20 -35 -30 -50 -15 -15 15 0 32 28 32 19 0 25 -5 22 -17z"/>
<path d="M3276 1737 c-10 -7 -16 -22 -14 -33 3 -15 11 -19 37 -17 42 2 59 17
45 41 -14 22 -44 26 -68 9z m54 -22 c0 -10 -10 -15 -30 -15 -29 0 -38 9 -23
23 13 13 53 7 53 -8z"/>
<path d="M6253 1732 c-32 -3 -47 -21 -37 -46 13 -34 94 -23 94 13 0 26 -19 37
-57 33z"/>
<path d="M3306 1607 c-27 -20 -17 -51 17 -55 33 -4 57 13 57 38 0 30 -43 39
-74 17z m56 -22 c1 -15 -27 -29 -45 -22 -26 10 -9 39 20 35 13 -2 24 -7 25
-13z"/>
<path d="M6260 1385 c-15 -18 -6 -45 15 -45 9 0 15 9 15 24 0 31 -14 40 -30
21z"/>
<path d="M3364 1305 c-8 -20 4 -35 27 -35 22 0 23 4 9 31 -13 23 -28 25 -36 4z"/>
<path d="M6295 1108 c-11 -6 -22 -13 -25 -15 -8 -7 24 -23 49 -23 17 0 22 4
17 16 -3 9 -6 20 -6 25 0 12 -10 11 -35 -3z"/>
<path d="M3453 970 c-29 -12 -30 -46 -2 -61 16 -8 28 -8 45 0 29 13 31 46 5
61 -22 11 -19 11 -48 0z m52 -30 c0 -16 -28 -25 -52 -16 -12 5 -13 9 -3 22 16
18 55 15 55 -6z"/>
<path d="M3520 706 c0 -31 14 -40 30 -21 10 12 10 18 0 30 -18 22 -30 18 -30
-9z"/>
<path d="M3513 374 c-3 -8 1 -23 10 -32 15 -14 17 -14 23 1 8 21 -1 47 -16 47
-6 0 -13 -7 -17 -16z"/>
<path d="M664 6473 c122 -284 250 -563 264 -576 9 -8 136 -89 282 -180 l265
-165 210 -30 c115 -17 210 -30 212 -28 3 2 -497 967 -532 1029 l-16 27 -359 0
-359 0 33 -77z"/>
<path d="M1653 6538 c3 -7 129 -251 280 -543 l275 -530 579 -3 c433 -2 876 5
1768 28 1670 42 2356 61 2383 66 l22 4 0 495 0 495 -2656 0 c-2121 0 -2655 -3
-2651 -12z"/>
<path d="M2330 5192 c0 -4 24 -68 54 -142 29 -74 88 -231 131 -347 73 -197 95
-243 95 -194 0 11 41 138 91 282 81 233 97 270 140 327 27 36 49 69 49 73 0 5
-126 9 -280 9 -154 0 -280 -4 -280 -8z"/>
<path d="M3010 3253 c0 -4 23 -81 52 -171 l52 -162 100 97 c56 54 102 100 104
104 2 4 -203 98 -300 137 -4 2 -8 0 -8 -5z"/>
<path d="M6942 502 c15 -58 16 -60 17 -16 1 27 -4 44 -13 47 -11 5 -12 -1 -4
-31z"/>
</g>
</svg>
